# Blender v2.80 (sub 53) OBJ File: 'block.blend'
# www.blender.org
mtllib block.mtl
o Cube_Cube.001
v -1.000000 -1.000000 1.000000
v -1.000000 1.000000 1.000000
v -1.000000 -1.000000 -1.000000
v -1.000000 1.000000 -1.000000
v 1.000000 -1.000000 1.000000
v 1.000000 1.000000 1.000000
v 1.000000 -1.000000 -1.000000
v 1.000000 1.000000 -1.000000
vt 0.002832 -1.988745
vt 0.997690 -1.988745
vt 0.997690 -0.993888
vt 0.002832 -0.993888
vt 0.997690 0.000971
vt 0.002832 0.000971
vt 0.997690 0.995829
vt 0.002832 0.995829
vt 0.997690 1.990687
vt 0.002832 1.990687
vt -0.992025 0.000971
vt -0.992025 0.995829
vt 1.992549 0.000971
vt 1.992549 0.995829
vn -1.0000 0.0000 0.0000
vn 0.0000 0.0000 -1.0000
vn 1.0000 0.0000 0.0000
vn 0.0000 0.0000 1.0000
vn 0.0000 -1.0000 0.0000
vn 0.0000 1.0000 0.0000
usemtl Material.001
s off
f 1/1/1 2/2/1 4/3/1 3/4/1
f 3/4/2 4/3/2 8/5/2 7/6/2
f 7/6/3 8/5/3 6/7/3 5/8/3
f 5/8/4 6/7/4 2/9/4 1/10/4
f 3/11/5 7/6/5 5/8/5 1/12/5
f 8/5/6 4/13/6 2/14/6 6/7/6
